<?xml version="1.0" encoding="UTF-8" standalone="no"?>
<svg xmlns="http://www.w3.org/2000/svg" width="1531.8" height="1600.1" viewBox="0 0 405.28 423.37" version="1.1">
 <defs>
  <radialGradient id="radialGradient5145" gradientTransform="matrix(134.86,0,0,134.86,277.36,390.59)" gradientUnits="userSpaceOnUse" r="1" cy="0" cx="0">
   <stop style="stop-color:#801253"/>
   <stop offset="0.77712" style="stop-color:#3b0c2e"/>
   <stop offset="1" style="stop-color:#3b0c2e"/>
  </radialGradient>
  <linearGradient id="linearGradient5163" gradientTransform="matrix(243.39,0,0,243.39,155.66,528.13)" gradientUnits="userSpaceOnUse" x2="1" x1="0">
   <stop style="stop-color:#3b0c2e"/>
   <stop offset="1" style="stop-color:#801253"/>
  </linearGradient>
  <linearGradient id="linearGradient5181" gradientTransform="matrix(0,295.01,-295.01,0,348.34,229.89)" gradientUnits="userSpaceOnUse" x2="1" x1="0">
   <stop style="stop-color:#801253"/>
   <stop offset="1" style="stop-color:#3b0c2e"/>
  </linearGradient>
  <linearGradient id="linearGradient5199" gradientTransform="matrix(0,295.01,295.01,0,206.54,229.89)" gradientUnits="userSpaceOnUse" x2="1" x1="0">
   <stop style="stop-color:#3b0c2e"/>
   <stop offset="1" style="stop-color:#801253"/>
  </linearGradient>
  <linearGradient id="linearGradient5237" gradientTransform="matrix(0,129.07,-129.07,0,277.36,365.7)" gradientUnits="userSpaceOnUse" x2="1" x1="0">
   <stop style="stop-color:#fedd31"/>
   <stop offset="1" style="stop-color:#fff59b"/>
  </linearGradient>
  <linearGradient id="linearGradient5257" gradientTransform="matrix(0,291.35,-291.35,0,277.6,246.27)" gradientUnits="userSpaceOnUse" x2="1" x1="0">
   <stop style="stop-color:#fedd31"/>
   <stop offset="0.22289" style="stop-color:#fedd31"/>
   <stop offset="1" style="stop-color:#fff59b"/>
  </linearGradient>
  <linearGradient id="linearGradient5291" gradientTransform="matrix(0,75.409,-75.409,0,277.36,311.7)" gradientUnits="userSpaceOnUse" x2="1" x1="0">
   <stop style="stop-color:#fedd31"/>
   <stop offset="1" style="stop-color:#fff59b"/>
  </linearGradient>
 </defs>
 <g transform="translate(159.3,51.545)">
  <g transform="matrix(1.2923,0,0,-1.2923,-315.11,664.9)">
   <g transform="translate(102.11,470.75)">
    <path d="m 328.91,-83.575 c -6.4,2.988 -13.59,4.824 -20.16,5.954 1.33,7.051 2.25,13.878 2.86,20.407 5.5,58.5363 -12.06,104.756 -12.82,106.695 l -1.83,4.734 -4.5,2.34 c -42.75,22.194 -98.18,23.922 -114.15,23.922 -1.49,0 -2.53,-0.02 -3.04,-0.03 -0.52,0.01 -1.55,0.03 -3.04,0.03 -15.97,0 -71.4,-1.728 -114.154,-23.922 L 53.572,54.215 51.74,49.481 C 50.993,47.542 33.43,1.3223 38.924,-57.214 c 0.612,-6.529 1.539,-13.356 2.858,-20.407 -6.561,-1.13 -13.753,-2.966 -20.156,-5.954 l 0.166,-0.139 -0.161,0.08 15.502,-49.786 c 9.365,-4.37 19.242,-7.99 29.228,-11 19.408,-33.55 51.269,-66.84 102.779,-93.24 l 6.13,-3.14 6.12,3.14 c 51.52,26.4 83.38,59.69 102.79,93.24 9.98,3.01 19.86,6.63 29.23,11.01 l 15.5,49.776 -0.16,-0.07 0.16,0.135 z" style="fill:#ffffff"/>
    <path d="m 328.91,-83.575 c -6.4,2.988 -13.59,4.824 -20.16,5.954 1.33,7.051 2.25,13.878 2.86,20.407 5.5,58.5363 -12.06,104.756 -12.82,106.695 l -1.83,4.734 -4.5,2.34 c -42.75,22.194 -98.18,23.922 -114.15,23.922 -1.49,0 -2.53,-0.02 -3.04,-0.03 -0.52,0.01 -1.55,0.03 -3.04,0.03 -15.97,0 -71.4,-1.728 -114.154,-23.922 L 53.572,54.215 51.74,49.481 C 50.993,47.542 33.43,1.3223 38.924,-57.214 c 0.612,-6.529 1.539,-13.356 2.858,-20.407 -6.561,-1.13 -13.753,-2.966 -20.156,-5.954 l 0.166,-0.139 -0.161,0.08 15.502,-49.786 c 9.365,-4.37 19.242,-7.99 29.228,-11 19.408,-33.55 51.269,-66.84 102.779,-93.24 l 6.13,-3.14 6.12,3.14 c 51.52,26.4 83.38,59.69 102.79,93.24 9.98,3.01 19.86,6.63 29.23,11.01 l 15.5,49.776 -0.16,-0.07 0.16,0.135 z" style="fill:none;stroke-miterlimit:10;stroke:#fff59b;stroke-linecap:round;stroke-linejoin:round;stroke-width:2.241"/>
   </g>
   <g transform="translate(96.2,465.76)">
    <path d="m 308.23,-101.04 -13.87,30.194 c 4.12,0 24.69,-0.382 40.46,-7.74 z" style="fill:#fedd31"/>
   </g>
   <g transform="translate(33.824,470.75)">
    <path d="m 89.912,-83.575 c 15.768,7.358 36.348,7.745 40.458,7.745 l -13.87,-30.19 z" style="fill:#fedd31"/>
   </g>
   <g>
    <g>
     <g>
      <path d="m 277.38,535.57 c -0.47,0 -1.4,0 -2.75,0 v 0 c -14.42,0 -64.45,-1.55 -103.04,-21.6 v 0 l -4.07,-2.1 -1.65,-4.27 c -0.68,-1.76 -16.53,-43.48 -11.57,-96.32 v 0 c 4.61,-49.19 28.76,-117.38 117.56,-162.89 v 0 l 5.52,-2.84 5.53,2.84 c 88.79,45.51 112.93,113.7 117.54,162.89 v 0 c 4.96,52.84 -10.89,94.56 -11.56,96.32 v 0 l -1.66,4.27 -4.07,2.1 c -38.58,20.05 -88.62,21.6 -103.04,21.6 v 0 c -1.34,0 -2.28,0 -2.74,0" style="fill:url(#radialGradient5145)"/>
     </g>
    </g>
   </g>
   <g>
    <g>
     <g>
      <path d="m 277.38,551.19 c -0.52,0 -1.55,0 -3.05,0 v 0 c -15.96,0 -71.4,-1.73 -114.14,-23.92 v 0 l -4.51,-2.34 21.61,-19.17 c 37.83,17.64 87.19,18.57 97.04,18.57 v 0 c 1.65,0 2.59,0 2.67,0 v 0 h 0.38 0.36 c 0.1,0 1.04,0 2.68,0 v 0 c 9.86,0 59.22,-0.93 97.04,-18.57 v 0 l 21.61,19.17 -4.51,2.34 c -42.74,22.19 -98.17,23.92 -114.14,23.92 v 0 c -1.5,0 -2.53,0 -3.04,0" style="fill:url(#linearGradient5163)"/>
     </g>
    </g>
   </g>
   <g>
    <g>
     <g>
      <path d="m 377.46,505.79 c 3.97,-12.55 13.6,-48.47 9.43,-90.74 v 0 C 380.28,348.04 343.44,295.98 277.38,260.21 v 0 -30.26 l 6.12,3.14 c 98.37,50.4 125.11,125.95 130.22,180.44 v 0 c 5.5,58.54 -12.06,104.76 -12.82,106.7 v 0 l -1.83,4.73 z" style="fill:url(#linearGradient5181)"/>
     </g>
    </g>
   </g>
   <g>
    <g>
     <g>
      <path d="m 153.85,520.23 c -0.75,-1.94 -18.31,-48.16 -12.82,-106.7 v 0 c 5.11,-54.49 31.86,-130.04 130.22,-180.44 v 0 l 6.13,-3.14 v 30.26 c -66.07,35.77 -102.91,87.83 -109.52,154.84 v 0 c -4.16,42.27 5.46,78.19 9.43,90.74 v 0 l -21.61,19.17 z" style="fill:url(#linearGradient5199)"/>
     </g>
    </g>
   </g>
   <g transform="translate(63.299,451.5)">
    <path d="m 193.08,-150.94 2.38,-0.13 v -16 l -3.45,0.18 v 12.46 l -2.76,-0.53 -0.73,2.89 z" style="fill:#3b0c2e"/>
   </g>
   <g transform="translate(65.945,450.77)">
    <path d="m 202.34,-153.49 c -1.73,0 -2.7,-0.95 -2.7,-2.38 0,-1.43 1.04,-2.43 2.77,-2.46 1.72,0 2.72,0.94 2.72,2.33 0,1.43 -1.05,2.47 -2.79,2.51 m -0.59,-13.43 c -2.31,0 -3.88,0.86 -5.22,2 l 1.84,2.61 c 1.16,-0.95 2.13,-1.4 3.47,-1.43 1.95,0 3,1.41 3.22,3.54 -0.77,-0.64 -1.84,-1.05 -3.22,-1.02 -3.44,0.1 -5.67,2.02 -5.67,5.27 0,3.22 2.47,5.53 6.05,5.45 2.14,0 3.38,-0.59 4.59,-1.82 1.13,-1.16 1.88,-2.9 1.88,-6.05 0,-5.18 -2.43,-8.64 -6.94,-8.55" style="fill:#3b0c2e"/>
   </g>
   <g transform="translate(68.189,451.36)">
    <path d="m 210.19,-151.44 h 9.76 v -3.06 h -6.76 l -0.19,-2.74 c 0.64,0.15 1.21,0.27 2.09,0.27 3.13,0 5.56,-1.49 5.56,-5.1 0,-3.38 -2.38,-5.51 -6.04,-5.52 -2.54,0 -4.4,0.9 -5.94,2.37 l 2.11,2.53 c 1.21,-1.09 2.38,-1.73 3.79,-1.72 1.63,0 2.65,0.8 2.65,2.23 0,1.38 -1.11,2.17 -2.81,2.17 -1,0 -1.9,-0.27 -2.65,-0.59 l -2.02,1.33 z" style="fill:#3b0c2e"/>
   </g>
   <g transform="translate(71.206,450.72)">
    <path d="m 220.75,-153.67 v 2.99 l 10.73,0.47 v -2.64 l -4.02,-4.01 c 2.18,-0.26 4.27,-1.31 4.27,-4.28 0,-3.02 -2.18,-5.31 -5.72,-5.47 -2.86,-0.12 -4.83,0.93 -6.19,2.48 l 2.41,2.4 c 1.08,-1.18 2.21,-1.81 3.83,-1.74 1.32,0.1 2.24,0.84 2.24,2.04 0,1.32 -1.11,2 -3.1,1.91 l -1.46,-0.1 -0.54,2.2 3.79,3.98 -6.24,-0.27 z" style="fill:#3b0c2e"/>
   </g>
   <g transform="translate(60.512,489.86)">
    <path d="m 183.32,-16.68 v 0 h -0.1 v 0 c -1.08,0.03 -3.03,1.147 -3.03,1.147 0,0 1.95,1.125 3.03,1.148 0,0 0,0 0,0 h 0.1 c 0,0 0,0 0,0 1.09,-0.02 3.02,-1.148 3.02,-1.148 0,0 -1.93,-1.12 -3.02,-1.147 m 0,-39.209 v 0 h -0.1 v 0 c -1.08,0.02 -3.03,1.148 -3.03,1.148 0,0 1.95,1.12 3.03,1.147 0,0 0,0 0,0 h 0.1 c 0,0 0,0 0,0 1.09,-0.03 3.02,-1.147 3.02,-1.147 0,0 -1.93,-1.125 -3.02,-1.148 m 0,-35.995 c 0,0 0,0 0,0 h -0.1 c 0,0 0,0 0,0 -1.08,0.02 -3.03,1.147 -3.03,1.147 0,0 1.95,1.121 3.03,1.148 v 0 h 0.1 v 0 c 1.09,-0.03 3.02,-1.148 3.02,-1.148 0,0 -1.93,-1.125 -3.02,-1.147 m -0.94,-9.656 c -0.61,0.28 -1.23,1.06 -1.37,1.34 -0.37,-1.18 -0.2,-1.46 -1.45,-3.69 -1.25,2.23 -1.08,2.51 -1.45,3.69 -0.14,-0.28 -0.76,-1.06 -1.37,-1.34 0,0.68 0,1.09 0.31,1.754 -0.5,-0.434 -1.56,-0.694 -1.91,-0.714 -0.15,1.182 4.42,9.205 4.42,9.205 0,0 4.58,-8.023 4.43,-9.205 -0.35,0 -1.42,0.28 -1.92,0.714 0.31,-0.664 0.33,-1.074 0.31,-1.754 m -6.57,11.951 v 0 h 0.1 v 0 c 1.08,-0.03 3.02,-1.148 3.02,-1.148 0,0 -1.94,-1.125 -3.02,-1.147 0,0 0,0 0,0 h -0.1 c 0,0 0,0 0,0 -1.09,0.02 -3.03,1.147 -3.03,1.147 0,0 1.94,1.121 3.03,1.148 m 0,35.995 c 0,0 0,0 0,0 h 0.1 c 0,0 0,0 0,0 1.08,-0.03 3.02,-1.147 3.02,-1.147 0,0 -1.94,-1.125 -3.02,-1.148 v 0 h -0.1 v 0 c -1.09,0.02 -3.03,1.148 -3.03,1.148 0,0 1.94,1.12 3.03,1.147 m 0,39.209 h 0.1 c 0,0 0,0 0,0 1.08,-0.02 3.02,-1.148 3.02,-1.148 0,0 -1.94,-1.12 -3.02,-1.147 v 0 h -0.1 v 0 c -1.09,0.03 -3.03,1.147 -3.03,1.147 0,0 1.94,1.125 3.03,1.148 0,0 0,0 0,0 m 3.79,-75.623 c 0,0 -1.12,1.94 -1.15,3.029 0,1.084 1.15,3.024 1.15,3.024 0,0 1.12,-1.94 1.15,-3.024 0,-1.089 -1.15,-3.029 -1.15,-3.029 m 2.82,24.462 c -0.61,0.279 -1.23,1.062 -1.37,1.341 -0.37,-1.183 -0.2,-1.462 -1.45,-3.69 -1.25,2.228 -1.08,2.507 -1.45,3.69 -0.14,-0.279 -0.76,-1.062 -1.37,-1.341 0,0.68 0,1.098 0.31,1.755 -0.5,-0.432 -1.56,-0.693 -1.91,-0.711 -0.15,1.184 4.42,9.203 4.42,9.203 0,0 4.58,-8.019 4.43,-9.203 -0.35,0.02 -1.42,0.279 -1.92,0.711 0.31,-0.657 0.33,-1.075 0.31,-1.755 m -2.82,11.534 c 0,0 -1.12,1.944 -1.15,3.028 0,1.085 1.15,3.024 1.15,3.024 0,0 1.12,-1.939 1.15,-3.024 0,-1.084 -1.15,-3.028 -1.15,-3.028 m 2.82,27.675 c -0.61,0.279 -1.23,1.062 -1.37,1.341 -0.37,-1.184 -0.2,-1.463 -1.45,-3.69 -1.25,2.227 -1.08,2.506 -1.45,3.69 -0.14,-0.279 -0.76,-1.062 -1.37,-1.341 0,0.679 0,1.098 0.31,1.755 -0.5,-0.432 -1.56,-0.693 -1.91,-0.711 -0.15,1.183 4.42,9.202 4.42,9.202 0,0 4.58,-8.019 4.43,-9.202 -0.35,0.02 -1.42,0.279 -1.92,0.711 0.31,-0.657 0.33,-1.076 0.31,-1.755 m -2.82,17.5903 c 0,0 1.12,-1.9393 1.15,-3.0283 0,-1.085 -1.15,-3.029 -1.15,-3.029 0,0 -1.12,1.944 -1.15,3.029 0,1.089 1.15,3.0283 1.15,3.0283 m 57.87,15.813 V -45.588 H 195.94 V 7.0393 C 186.86,6.4273 175.38,5.2527 163.07,3.0343 V -119.42 c 12.88,-1.46 24.27,-2.21 33.07,-2.59 v 48.396 h 41.94 v -48.376 c 8.74,0.38 19.98,1.14 32.67,2.57 V 3.0343 c -12.5,2.2545 -24.13,3.429 -33.28,4.032" style="fill:#3b0c2e"/>
   </g>
   <g>
    <g>
     <g>
      <path d="M 297.94,442.13 H 256.4 v 52.63 c -9.07,-0.62 -20.55,-1.79 -32.86,-4.01 v 0 -122.46 c 12.88,-1.46 24.27,-2.2 33.06,-2.58 v 0 48.39 h 41.95 v -48.38 c 8.74,0.39 19.98,1.14 32.67,2.57 v 0 122.46 c -12.5,2.25 -24.14,3.43 -33.28,4.03 v 0 z m -59.01,33.81 c 0,1.08 1.14,3.03 1.14,3.03 v 0 c 0,0 1.13,-1.95 1.15,-3.03 v 0 c 0,-1.09 -1.15,-3.03 -1.15,-3.03 v 0 c 0,0 -1.12,1.94 -1.14,3.03 m 4.9,-4.91 c -1.09,0 -3.02,1.15 -3.02,1.15 v 0 c 0,0 1.93,1.13 3.02,1.15 v 0 c 0,0 0,0 0,0 v 0 h 0.1 c 0,0 0,0 0,0 v 0 c 1.09,0 3.03,-1.15 3.03,-1.15 v 0 c 0,0 -1.94,-1.12 -3.03,-1.15 v 0 0 c 0,0 0,0 0,0 m -7.52,0 c -1.08,0 -3.02,1.15 -3.02,1.15 v 0 c 0,0 1.94,1.13 3.02,1.15 v 0 c 0,0 0,0 0,0 v 0 h 0.1 c 0,0 0,0 0,0 v 0 c 1.09,0 3.03,-1.15 3.03,-1.15 v 0 c 0,0 -1.94,-1.12 -3.03,-1.15 v 0 0 c 0,0 0,0 0,0 m 3.76,0.6 c 0,0 4.58,-8.02 4.43,-9.21 v 0 c -0.35,0 -1.41,0.28 -1.92,0.71 v 0 c 0.32,-0.66 0.33,-1.07 0.32,-1.75 v 0 c -0.62,0.28 -1.24,1.06 -1.38,1.34 v 0 c -0.36,-1.19 -0.2,-1.46 -1.45,-3.69 v 0 c -1.25,2.23 -1.08,2.5 -1.44,3.69 v 0 c -0.14,-0.28 -0.77,-1.06 -1.38,-1.34 v 0 c 0,0.68 0,1.09 0.31,1.75 v 0 c -0.5,-0.43 -1.56,-0.69 -1.91,-0.71 v 0 c -0.15,1.19 4.42,9.21 4.42,9.21 m -1.14,-34.9 c 0,1.09 1.14,3.03 1.14,3.03 v 0 c 0,0 1.13,-1.94 1.15,-3.03 v 0 c 0,-1.09 -1.15,-3.03 -1.15,-3.03 v 0 c 0,0 -1.12,1.94 -1.14,3.03 m 4.9,-2.61 c 0,0 0,0 0,0 z m 0,-2.3 c -1.09,0 -3.02,1.15 -3.02,1.15 v 0 c 0,0 1.93,1.12 3.02,1.15 v 0 c 1.09,0 3.03,-1.15 3.03,-1.15 v 0 c 0,0 -1.94,-1.12 -3.03,-1.15 v 0 c 0,0 0,0 0,0 v 0 h -0.1 c 0,0 0,0 0,0 m -7.52,2.3 c 0,0 0,0 0,0 z m 0,-2.3 c -1.08,0 -3.02,1.15 -3.02,1.15 v 0 c 0,0 1.94,1.12 3.02,1.15 v 0 c 1.09,0 3.03,-1.15 3.03,-1.15 v 0 c 0,0 -1.94,-1.12 -3.03,-1.15 v 0 c 0,0 0,0 0,0 v 0 h -0.1 c 0,0 0,0 0,0 m 3.76,0.6 c 0,0 4.58,-8.03 4.43,-9.21 v 0 c -0.35,0 -1.41,0.28 -1.92,0.72 v 0 c 0.32,-0.67 0.33,-1.08 0.32,-1.76 v 0 c -0.62,0.28 -1.24,1.06 -1.38,1.34 v 0 c -0.36,-1.19 -0.2,-1.46 -1.45,-3.69 v 0 c -1.25,2.23 -1.08,2.5 -1.44,3.69 v 0 c -0.14,-0.28 -0.77,-1.06 -1.38,-1.34 v 0 c 0,0.68 0,1.09 0.31,1.76 v 0 c -0.5,-0.44 -1.56,-0.7 -1.91,-0.72 v 0 c -0.15,1.18 4.42,9.21 4.42,9.21 m -1.14,-31.69 c 0,1.09 1.14,3.03 1.14,3.03 v 0 c 0,0 1.13,-1.94 1.15,-3.03 v 0 c 0,-1.08 -1.15,-3.03 -1.15,-3.03 v 0 c 0,0 -1.12,1.95 -1.14,3.03 m 4.9,-4.9 c -1.09,0 -3.02,1.15 -3.02,1.15 v 0 c 0,0 1.93,1.12 3.02,1.14 v 0 c 0,0 0,0 0,0 v 0 h 0.1 c 0,0 0,0 0,0 v 0 c 1.09,0 3.03,-1.14 3.03,-1.14 v 0 c 0,0 -1.94,-1.12 -3.03,-1.15 v 0 0 0 z m -7.52,0 c -1.08,0 -3.02,1.15 -3.02,1.15 v 0 c 0,0 1.94,1.12 3.02,1.14 v 0 c 0,0 0,0 0,0 v 0 h 0.1 c 0,0 0,0 0,0 v 0 c 1.09,0 3.03,-1.14 3.03,-1.14 v 0 c 0,0 -1.94,-1.12 -3.03,-1.15 v 0 0 0 z m 3.76,0.59 c 0,0 4.58,-8.02 4.43,-9.21 v 0 c -0.35,0 -1.41,0.28 -1.92,0.72 v 0 c 0.32,-0.66 0.33,-1.08 0.32,-1.75 v 0 c -0.62,0.27 -1.24,1.05 -1.38,1.33 v 0 c -0.36,-1.18 -0.2,-1.46 -1.45,-3.69 v 0 c -1.25,2.23 -1.08,2.51 -1.44,3.69 v 0 c -0.14,-0.28 -0.77,-1.06 -1.38,-1.33 v 0 c 0,0.67 0,1.09 0.31,1.75 v 0 c -0.5,-0.44 -1.56,-0.7 -1.91,-0.72 v 0 c -0.15,1.19 4.42,9.21 4.42,9.21" style="fill:url(#linearGradient5237)"/>
     </g>
    </g>
   </g>
   <g>
    <g>
     <g>
      <path d="m 277.39,537.88 c -0.47,0 -1.41,0 -2.76,0 v 0 c -14.45,0 -64.61,-1.56 -103.33,-21.66 v 0 l -4.28,-2.22 -1.74,-4.5 c -0.68,-1.76 -16.57,-43.7 -11.61,-96.6 v 0 c 4.63,-49.35 28.84,-117.75 117.89,-163.39 v 0 l 5.82,-2.98 5.81,2.98 c 89.05,45.64 113.26,114.04 117.9,163.39 v 0 c 4.96,53 -10.94,94.85 -11.62,96.6 v 0 l -1.74,4.5 -4.28,2.22 c -38.7,20.1 -88.88,21.66 -103.33,21.66 v 0 c -1.35,0 -2.29,0 -2.73,0 m 2.73,-1.24 c 14.38,0 64.29,-1.55 102.75,-21.52 v 0 l 3.86,-2 1.57,-4.05 c 0.67,-1.75 16.48,-43.33 11.53,-96.03 v 0 C 395.23,364 371.16,296.02 282.62,250.65 v 0 l -5.24,-2.68 -5.24,2.68 C 183.59,296.02 159.52,364 154.93,413.04 v 0 c -4.94,52.61 10.85,94.28 11.53,96.03 v 0 l 1.56,4.05 3.86,2 c 38.46,19.97 88.37,21.52 102.75,21.52 v 0 c 1.34,0 2.27,0 2.76,0 v 0 c 0.46,0 1.39,0 2.73,0" style="fill:url(#linearGradient5257)"/>
     </g>
    </g>
   </g>
   <g transform="translate(63.299,451.97)">
    <path d="m 193.08,-149.28 2.38,-0.12 v -16 l -3.45,0.18 v 12.46 l -2.76,-0.53 -0.73,2.89 z" style="fill:#fedd31"/>
   </g>
   <g transform="translate(65.945,451.24)">
    <path d="m 202.34,-151.83 c -1.73,0 -2.7,-0.94 -2.7,-2.37 0,-1.43 1.04,-2.43 2.77,-2.46 1.72,0 2.72,0.94 2.72,2.32 0,1.43 -1.05,2.48 -2.79,2.51 m -0.59,-13.42 c -2.31,0.1 -3.88,0.85 -5.22,2 l 1.84,2.61 c 1.16,-0.95 2.13,-1.41 3.47,-1.43 1.95,0 3,1.41 3.22,3.54 -0.77,-0.65 -1.84,-1.06 -3.22,-1.03 -3.44,0.1 -5.67,2.03 -5.67,5.28 0,3.22 2.47,5.53 6.05,5.45 2.14,0 3.38,-0.6 4.59,-1.82 1.13,-1.16 1.88,-2.9 1.88,-6.06 0,-5.17 -2.43,-8.64 -6.94,-8.54" style="fill:#fedd31"/>
   </g>
   <g transform="translate(68.189,451.83)">
    <path d="m 210.19,-149.77 h 9.76 v -3.07 h -6.76 l -0.19,-2.75 c 0.64,0.16 1.21,0.28 2.09,0.28 3.13,0 5.56,-1.49 5.56,-5.1 0,-3.38 -2.38,-5.52 -6.04,-5.52 -2.54,0 -4.4,0.9 -5.94,2.37 l 2.11,2.52 c 1.21,-1.08 2.38,-1.72 3.79,-1.71 1.63,0 2.65,0.8 2.65,2.23 0,1.38 -1.11,2.17 -2.81,2.17 -1,0 -1.9,-0.28 -2.65,-0.6 l -2.02,1.34 0.45,7.83 z" style="fill:#fedd31"/>
   </g>
   <g transform="translate(71.206,451.19)">
    <path d="m 220.75,-152.01 v 3 l 10.73,0.46 v -2.63 l -4.02,-4.01 c 2.18,-0.27 4.27,-1.31 4.27,-4.29 0,-3.01 -2.18,-5.31 -5.72,-5.46 -2.86,-0.12 -4.83,0.93 -6.19,2.48 l 2.41,2.39 c 1.08,-1.17 2.21,-1.81 3.83,-1.74 1.32,0.1 2.24,0.85 2.24,2.05 0,1.32 -1.11,2 -3.1,1.91 l -1.46,-0.1 -0.54,2.2 3.79,3.97 -6.24,-0.27 z" style="fill:#fedd31"/>
   </g>
   <g>
    <g>
     <g>
      <path d="m 282.04,358.6 c -2.52,0 -3.96,0 -4.09,0 v 0 h -0.57 -0.56 c -0.15,0 -1.59,0 -4.12,0 v 0 c -15.12,0 -90.9,1.42 -148.96,28.51 v 0 l 15.5,-49.78 c 52.2,-24.35 120.34,-25.63 133.94,-25.63 v 0 c 2.27,0 3.57,0 3.7,0 v 0 h 0.5 0.51 c 0.12,0 1.42,0 3.68,0 v 0 c 13.61,0 81.74,1.28 133.94,25.63 v 0 l 15.5,49.78 C 372.96,360.02 297.18,358.6 282.04,358.6" style="fill:url(#linearGradient5291)"/>
     </g>
    </g>
   </g>
   <g transform="translate(78.747,461.26)">
    <path d="m 247.14,-116.77 6.92,0.94 v -18.28 l 5,0.67 v 18.29 l 6.92,0.93 v 4.66 l -18.84,-2.55 z m -42.96,-11.23 3.05,7.48 3.04,-7.39 -6.09,-0.1 z m 0.79,13.51 -9.83,-23.25 5.14,0.1 2.1,5.18 9.7,0.14 2.1,-5.11 5.28,0.1 -9.84,22.96 -4.65,-0.1 z m 33.37,-12.57 -10.72,13.27 -4.64,-0.37 v -22.94 l 4.97,0.4 v 14.58 l 11.07,-13.7 4.29,0.34 v 22.94 l -4.97,-0.4 z m 36.37,5.46 10.61,2.06 v 4.49 l -10.61,-2.06 v 4.66 l 12.06,2.33 v 4.5 l -16.99,-3.3 v -22.94 l 17.15,3.33 v 4.48 l -12.22,-2.36 z m 25.59,10.21 c -3.84,0 -4.79,0.24 -4.79,1.75 v 0.1 c 0,1.12 0.98,2.27 2.85,2.76 1.87,0.49 3.81,0.16 5.77,-0.74 l 2.54,4.48 c -2.26,1.27 -5.01,1.59 -8.25,0.73 -4.52,-1.2 -7.75,-4.8 -7.75,-8.97 v -0.1 c 0,-4.56 2.88,-5.07 7.35,-5.07 3.7,0 4.46,-0.46 4.46,-1.73 v -0.1 c 0,-1.34 -1.2,-2.48 -3.2,-3.01 -2.53,-0.67 -4.62,-0.14 -6.62,1.03 l -2.88,-4.33 c 2.66,-1.75 6.05,-2.07 9.41,-1.18 4.78,1.26 8.14,4.71 8.14,9.27 v 0.1 c 0,4 -2.54,5 -7.03,5.02 m -113.7,-17.3 -10.75,14.56 -4.64,0.19 v -22.94 l 4.97,-0.2 v 14.58 l 11.1,-15.03 4.3,-0.18 v 22.94 l -4.98,0.21 z m -58.27,3.76 c 0,-1.7 -1.32,-2.24 -3.52,-1.84 l -5.89,1.1 v 5.04 l 5.74,-1.06 c 2.54,-0.47 3.67,-1.63 3.67,-3.17 v -0.1 z m -9.41,13.35 4.9,-0.91 c 2.09,-0.39 3.25,-1.46 3.25,-2.96 v -0.1 c 0,-1.7 -1.39,-2.16 -3.57,-1.76 l -4.58,0.85 v 4.85 z m 10.12,-8.4 c 1.61,0.62 2.96,1.81 2.96,4.41 v 0.1 c 0,3.6 -2.83,6.46 -7.44,7.31 l -10.47,1.94 v -22.94 l 10.72,-1.99 c 5.1,-0.94 8.45,0.54 8.45,4.73 v 0.1 c 0,3.09 -1.61,4.93 -4.22,6.42 m -25.23,7.07 -8.996,2.38 v 9.08 l -4.883,1.28 v -22.94 l 4.883,-1.28 v 9.21 l 8.996,-2.38 v -9.21 l 4.89,-1.29 v 22.94 l -4.89,1.29 z m 44.42,-17.49 c -3.9,0.47 -6.6,4.08 -6.6,8.02 v 0.1 c 0,3.94 2.77,6.81 6.6,6.34 2.28,-0.28 4.07,-1.48 5.83,-3.3 l 3.18,3.31 c -2.11,2.36 -4.68,4.11 -8.98,4.64 -6.98,0.85 -11.86,-3.89 -11.86,-10.41 v -0.1 c 0,-6.59 4.97,-12.41 11.67,-13.23 4.39,-0.53 6.99,0.72 9.33,2.96 l -3.18,3.64 c -1.79,-1.43 -3.38,-2.28 -5.99,-1.96" style="fill:#3b0c2e"/>
   </g>
  </g>
 </g>
</svg>
